<?xml version="1.0" encoding="UTF-8" standalone="no"?>
<svg
   xmlns:dc="http://purl.org/dc/elements/1.1/"
   xmlns:cc="http://creativecommons.org/ns#"
   xmlns:rdf="http://www.w3.org/1999/02/22-rdf-syntax-ns#"
   xmlns:svg="http://www.w3.org/2000/svg"
   xmlns="http://www.w3.org/2000/svg"
   viewBox="0 0 773.78534 1044.6387"
   height="1044.6387"
   width="773.78534"
   xml:space="preserve"
   id="svg2"
   version="1.1"><metadata
     id="metadata8"><rdf:RDF><cc:Work
         rdf:about=""><dc:format>image/svg+xml</dc:format><dc:type
           rdf:resource="http://purl.org/dc/dcmitype/StillImage" /></cc:Work></rdf:RDF></metadata><defs
     id="defs6"><clipPath
       id="clipPath18"
       clipPathUnits="userSpaceOnUse"><path
         id="path16"
         d="M 0,783.479 H 580.339 V 0 H 0 Z" /></clipPath></defs><g
     transform="matrix(1.3333333,0,0,-1.3333333,0,1044.6387)"
     id="g10"><g
       id="g12"><g
         clip-path="url(#clipPath18)"
         id="g14"><g
           transform="translate(334.5533,223.0124)"
           id="g20"><path
             id="path22"
             style="fill:#2e539a;fill-opacity:1;fill-rule:nonzero;stroke:none"
             d="m 0,0 9.473,1.104 -78.69,159.291 -23.188,48.401 -0.576,-0.281 -0.392,0.775 c 0.088,0.394 0.187,0.773 0.323,1.161 1.977,5.686 3.675,11.492 6.654,16.766 1.244,2.208 1.45,4.747 2.505,7.015 0.697,1.494 1.31,2.913 3.342,2.673 0.444,1.907 0.771,3.866 1.346,5.743 6.25,20.758 12.548,41.498 18.823,62.254 7.331,24.264 14.664,48.541 21.984,72.819 1.14,3.768 2.327,7.53 3.312,11.343 0.668,2.602 0.228,2.991 -2.472,2.997 -0.392,0.001 -0.786,-0.009 -1.186,-0.055 -16.45,-1.809 -32.892,-3.643 -49.35,-5.413 -1.942,-0.202 -3.072,-0.964 -3.577,-2.973 -1.274,-5.09 -2.751,-10.14 -4.097,-15.219 -4.403,-16.64 -8.76,-33.298 -13.175,-49.937 -4.921,-18.549 -9.923,-37.064 -14.844,-55.613 -4.386,-16.507 -8.702,-33.036 -13.064,-49.546 -0.238,-0.89 -0.502,-1.788 -0.902,-2.609 -0.797,-1.602 -2.156,-1.758 -3.511,-0.563 -1.235,1.08 -1.226,2.564 -1.36,3.994 -1.58,17.268 -3.123,34.531 -4.703,51.8 -3.382,36.885 -6.763,73.782 -10.145,110.668 -0.327,3.541 -0.991,4.192 -4.531,4.442 -0.914,0.057 -1.826,-0.07 -2.746,-0.16 -9.676,-0.967 -19.343,-1.961 -29.018,-2.917 -4.438,-0.431 -8.902,-0.773 -13.331,-1.23 -3.224,-0.343 -3.44,-0.684 -3.159,-4.01 0.015,-0.26 0.067,-0.524 0.094,-0.785 3.945,-39.463 7.888,-78.938 11.843,-118.414 5.237,-52.41 10.56,-104.818 15.684,-157.25 3.482,-35.547 7.786,-71.005 10.284,-106.659 0.224,-3.295 1.691,-5.142 4.92,-5.609 2.577,-0.384 5.167,-0.769 7.829,-0.5 11.378,1.128 22.755,2.243 34.142,3.149 4.279,0.341 5.972,2.037 5.529,6.576 -1.763,18.691 -3.337,37.418 -5.063,56.118 -0.773,8.239 -1.412,16.473 -2.321,24.706 -0.702,6.24 -1.213,12.518 -1.765,18.777 -0.617,7.077 -0.668,14.167 1.951,21.021 1.503,3.918 2.607,7.985 3.899,11.992 2.146,6.608 4.293,13.229 6.438,19.838 2.758,-0.886 4.099,-2.667 5.131,-5.121 5.594,-13.48 11.355,-26.896 17.067,-40.317 12.226,-28.801 24.4,-57.619 36.715,-86.393 2.363,-5.536 4.32,-11.278 7.579,-16.438 1.039,-1.645 2.239,-2.524 3.744,-2.843 l 45.32,5.285 0.174,-0.367 z" /></g><g
           transform="translate(492.6685,420.6657)"
           id="g24"><path
             id="path26"
             style="fill:#48954b;fill-opacity:1;fill-rule:nonzero;stroke:none"
             d="m 0,0 c -0.304,-1.017 -0.584,-2.048 -0.854,-3.081 -1.855,-6.929 -3.203,-14.009 -4.221,-21.107 -0.683,-4.798 -0.874,-11.291 -7.044,-11.916 -4.392,-0.45 -8.712,-1.105 -13.192,-1.101 -2.527,0.009 -5.329,-0.672 -8.021,-0.985 -6.554,-0.748 -5.605,6.668 -6.159,11.392 -1.14,9.674 -3.535,20.173 -2.86,29.931 0.384,5.609 8.697,4.875 12.564,5.061 7.447,0.349 14.875,1.117 22.233,2.286 3.358,0.523 7.849,1.365 8.806,-2.81 C 1.844,5.04 0.726,2.472 0,0 m -11.275,-58.199 c -0.691,-3.335 -1.405,-6.668 -2.131,-9.999 -1.634,-7.485 -3.277,-14.956 -4.732,-22.49 -0.46,-2.408 -0.088,-5.218 -2.244,-6.89 -1.938,-1.504 -5.088,-1.464 -7.388,-1.78 -0.623,-0.08 -1.291,0.265 -1.937,0.3 -1.84,0.104 -2.577,0.862 -2.898,2.83 -1.334,8.178 -1.265,16.48 -2.351,24.673 -0.708,5.333 -1.43,10.657 -1.579,16.04 -0.014,0.654 0.009,1.301 0.068,1.944 0.291,3.387 0.696,3.285 4.036,3.773 4.106,0.61 8.285,0.461 12.306,1.363 2.225,0.497 4.432,0.286 6.622,0.419 4.579,0.29 2.723,-7.78 2.228,-10.183 m -36.249,-42.981 -33.519,-3.266 c -2.463,-0.245 -4.659,1.561 -4.903,4.036 l -3.696,37.969 c -0.244,2.474 1.563,4.67 4.024,4.905 l 33.519,3.265 c 2.462,0.247 4.659,-1.561 4.904,-4.023 l 3.707,-37.983 c 0.232,-2.473 -1.574,-4.658 -4.036,-4.903 m -45.063,60.812 -3.641,37.361 c -0.233,2.461 1.562,4.659 4.036,4.903 l 33.507,3.268 c 2.475,0.244 4.671,-1.563 4.903,-4.036 l 3.652,-37.362 c 0.234,-2.461 -1.573,-4.658 -4.036,-4.903 l -33.507,-3.268 c -2.473,-0.232 -4.671,1.562 -4.914,4.037 m -8.139,-66.008 -33.519,-3.267 c -2.473,-0.231 -4.657,1.575 -4.903,4.037 l -3.706,37.983 c -0.234,2.461 1.573,4.657 4.035,4.902 l 33.507,3.269 c 2.475,0.243 4.671,-1.564 4.915,-4.038 l 3.696,-37.969 c 0.244,-2.475 -1.563,-4.671 -4.025,-4.917 m -42.764,56.672 c -2.814,0.169 -3.64,0.804 -4.176,3.684 -0.425,2.302 -0.337,4.782 -0.794,6.941 -1.045,4.91 -0.55,9.867 -1.366,14.748 -0.92,5.496 -0.978,11.114 -2.172,16.584 -0.27,1.226 0.051,2.375 1.484,2.827 1.304,0.397 2.489,1.114 3.889,1.301 0.388,0.158 0.784,0.279 1.231,0.319 l 33.507,3.268 c 2.475,0.244 4.671,-1.563 4.905,-4.024 l 3.64,-37.361 c 0.175,-1.777 -0.724,-3.404 -2.15,-4.275 -0.666,-0.871 -1.843,-1.149 -2.947,-1.141 -7.874,0.149 -15.527,-1.878 -23.409,-2.072 -3.818,-0.094 -7.7,-1.162 -11.642,-0.799 m -9.809,-62.035 c -0.029,-1.261 -0.716,-2.116 -2.091,-2.307 -2.987,-0.41 -5.975,-0.821 -8.966,-1.17 -2.293,-0.267 -3.65,0.914 -4.567,2.937 -1.725,3.832 -3.556,7.605 -5.346,11.409 -4.699,9.964 -9.411,19.929 -14.135,29.883 -0.811,1.701 -0.953,2.971 -0.409,3.858 -0.364,2.024 0.847,3.119 3.876,3.389 7.516,0.683 15.042,1.353 22.569,1.936 3.821,0.303 4.633,-0.342 5.059,-4.154 0.999,-8.87 1.888,-17.738 2.812,-26.61 0.433,-4.243 0.864,-8.485 1.283,-12.738 0.116,-1.279 0.157,-2.573 0.234,-3.97 -0.014,-0.49 -0.153,-0.901 -0.371,-1.253 0.022,-0.396 0.033,-0.79 0.052,-1.21 m -43.598,61.604 c -4.166,8.961 -8.437,17.875 -12.694,26.799 -1.4,2.932 -2.851,5.845 -4.356,8.729 -0.503,0.948 -0.785,1.893 -0.858,2.946 -0.077,1.483 0.3,2.502 2.021,2.709 1.298,0.163 2.572,0.808 3.844,0.766 4.607,-0.155 9.133,0.572 13.671,1.014 5.694,0.552 11.425,0.447 17.114,1.428 3.152,0.549 6.384,0.768 9.579,1.263 3.758,0.581 4.968,-0.595 5.378,-4.343 1.3,-11.855 2.538,-23.702 3.777,-35.549 0.111,-1.034 0.062,-2.083 0.082,-2.97 -0.265,-2.518 -0.949,-3.339 -3.459,-3.578 -9.669,-0.907 -19.347,-1.703 -29.012,-2.586 -2.683,-0.241 -4.04,1.125 -5.087,3.372 M 26.967,24.788 c 0.213,3.827 -3.83,8.905 -7.633,9.583 -2.184,0.393 -4.399,0.631 -6.667,0.373 -4.276,-0.502 -8.565,-0.829 -12.854,-1.243 -8.714,-0.835 -17.44,-1.668 -26.146,-2.541 -5.085,-0.494 -10.165,-0.953 -15.219,-1.587 -2.683,-0.34 -5.236,-0.144 -7.763,0.724 -1.322,-1.584 -3.289,-1.513 -5.043,-1.691 -14.368,-1.453 -28.758,-2.803 -43.126,-4.267 -1.978,-0.199 -3.691,-0.345 -4.381,2.004 -0.933,-2.274 -2.592,-3.237 -5.114,-3.462 -22.342,-1.991 -44.681,-4.054 -67.027,-6.166 -15.931,-1.495 -31.865,-3.101 -47.79,-4.645 -3.99,-0.38 -4.703,-0.005 -6.46,3.574 -2.82,5.718 -5.483,11.501 -8.341,17.2 -1.132,2.246 -1.892,4.53 -2.011,7.024 -2.03,0.252 -2.641,-1.154 -3.335,-2.624 -1.051,-2.232 -1.253,-4.735 -2.504,-6.905 -2.957,-5.203 -4.655,-10.912 -6.609,-16.515 -0.743,-2.138 -0.723,-4.252 0.376,-6.383 1.494,-2.87 2.79,-5.848 4.178,-8.778 1.46,-3.037 3.639,-5.738 4.669,-8.965 1.389,-4.342 3.392,-8.394 5.417,-12.475 2.719,-5.447 5.108,-11.072 7.904,-16.492 3.384,-6.564 6.089,-13.446 9.927,-19.823 1.606,-2.664 3.564,-5.373 4.074,-8.631 2.683,-1.182 3.297,-3.926 4.385,-6.141 5.526,-11.249 10.882,-22.586 16.161,-33.951 1.143,-2.456 1.97,-5.067 3.32,-7.44 0.49,-0.86 0.465,-1.717 0.203,-2.604 l 0.026,-0.077 c 1.145,-0.075 1.618,-0.591 1.188,-1.725 l 0.113,-0.077 c 1.123,-0.525 0.687,-1.426 0.567,-2.257 l 0.016,-0.065 c 2.844,-1.547 3.31,-4.676 4.699,-7.127 1.019,-1.801 2.088,-3.868 1.507,-6.174 l 0.016,-0.063 c 1.705,-0.209 1.486,-1.322 1.216,-2.465 l 0.014,-0.076 c 1.759,-0.068 1.945,-1.664 2.449,-2.699 6.592,-13.449 13.222,-26.892 19.566,-40.456 1.752,-3.726 2.993,-7.692 5.423,-11.101 0.509,-0.717 0.325,-1.477 0.214,-2.237 0.562,-0.588 1.229,-0.933 2.042,-1.1 1.542,-0.322 3.079,-0.583 4.628,-0.759 l 124.56,13.709 c 0.182,0.358 0.321,0.769 0.432,1.246 0.564,2.652 1.606,5.193 2.196,7.854 0.645,2.888 1.769,5.687 1.684,8.73 -0.035,1.429 -0.56,2.209 -2.096,2.102 -0.656,-0.038 -1.314,-0.002 -1.975,-0.076 -18.263,-1.867 -36.538,-3.735 -54.804,-5.626 -14.621,-1.518 -29.221,-3.16 -43.85,-4.555 -4.81,-0.457 -9.625,-1.33 -14.521,-0.744 -1.754,0.202 -2.985,0.841 -3.742,2.388 -3.038,6.298 -6.115,12.577 -9.102,18.893 -2.314,4.879 -4.498,9.815 -6.813,14.681 -1.14,2.383 -0.72,3.826 1.773,4.398 3.061,0.697 6.098,1.494 9.251,1.76 14.659,1.242 29.3,2.536 43.941,3.83 29.655,2.626 59.315,5.287 88.988,7.862 4.023,0.35 7.143,2.266 10.138,4.627 1.312,1.034 1.925,2.353 2.219,3.96 2.43,12.968 4.908,25.929 7.363,38.906 3.364,17.805 6.657,35.633 10.095,53.442 2.37,12.324 4.335,24.737 7.103,36.999 0.513,2.253 0.745,4.605 0.885,6.919" /></g><g
           transform="translate(443.3307,450.5631)"
           id="g28"><path
             id="path30"
             style="fill:#2e539a;fill-opacity:1;fill-rule:nonzero;stroke:none"
             d="m 0,0 c -1.326,-1.608 -3.293,-1.537 -5.047,-1.716 -14.375,-1.512 -28.771,-2.911 -43.145,-4.412 -1.979,-0.21 -3.693,-0.368 -4.379,2.017 0.349,1.267 0.462,2.517 0.331,3.873 -3.404,36.347 -6.743,72.712 -10.108,109.067 -0.381,4.162 -0.884,4.731 -5.036,4.9 -4.348,0.171 -8.635,-0.697 -12.942,-1.158 -20.236,-2.127 -40.484,-4.34 -60.716,-6.53 -0.908,-0.09 -1.809,-0.317 -3.113,0.416 0.503,2.366 0.992,4.905 1.588,7.418 2.691,11.387 5.404,22.758 8.107,34.132 0.874,3.716 1.676,7.443 2.632,11.124 1.055,4.062 1.118,4.078 5.21,4.493 7.974,0.808 15.946,1.604 23.918,2.399 47.045,4.668 94.1,9.323 141.158,14.001 5.31,0.527 5.35,0.547 5.971,-4.886 1.719,-14.868 3.412,-29.744 5.093,-44.62 0.495,-4.422 0.456,-4.441 -4.093,-4.969 -17.621,-2.025 -35.24,-4.038 -52.847,-6.052 -0.786,-0.095 -1.577,-0.139 -2.348,-0.31 -2.551,-0.552 -2.7,-0.754 -2.452,-3.389 C -8.544,78.42 -4.859,41.029 -1.21,3.643 -1.077,2.3 -0.92,1.052 0,0" /></g></g></g><text
       id="text34"
       style="font-variant:normal;font-weight:300;font-stretch:normal;font-size:65.36508179px;font-family:'Bahnschrift Light';-inkscape-font-specification:Bahnschrift;writing-mode:lr-tb;fill:#48954b;fill-opacity:1;fill-rule:nonzero;stroke:none"
       transform="matrix(0.99592468,0.09018882,0.09018882,-0.99592468,159.7851,140.7156)"><tspan
         id="tspan32"
         y="0"
         x="0 30.826174 60.985622 92.83149 121.4614 154.92831 194.4742 227.28746 260.75439 293.20816 323.11267">SUPERMARKET</tspan></text>
</g></svg>